<mxfile host="app.diagrams.net" modified="2023-09-18T07:51:33.781Z" agent="Mozilla/5.0 (Macintosh; Intel Mac OS X 10_15_7) AppleWebKit/537.36 (KHTML, like Gecko) Chrome/116.0.0.0 Safari/537.36" etag="URflFgWmpfvrUbE7KQLi" version="21.7.5" type="device">
  <diagram name="第 1 页" id="R0vbw-Ek2zc4bJ7mE8qg">
    <mxGraphModel dx="2074" dy="1150" grid="1" gridSize="10" guides="1" tooltips="1" connect="1" arrows="1" fold="1" page="1" pageScale="1" pageWidth="827" pageHeight="1169" math="0" shadow="0">
      <root>
        <mxCell id="0" />
        <mxCell id="1" parent="0" />
        <mxCell id="MyYjl77unRjxFLSENZc_-5" value="" style="group" vertex="1" connectable="0" parent="1">
          <mxGeometry x="550" y="400" width="120" height="90" as="geometry" />
        </mxCell>
        <mxCell id="MyYjl77unRjxFLSENZc_-3" value="&lt;font style=&quot;font-size: 14px;&quot;&gt;char one_byte&lt;/font&gt;" style="rounded=0;whiteSpace=wrap;html=1;" vertex="1" parent="MyYjl77unRjxFLSENZc_-5">
          <mxGeometry y="30" width="120" height="60" as="geometry" />
        </mxCell>
        <mxCell id="MyYjl77unRjxFLSENZc_-4" value="&lt;font style=&quot;font-size: 14px;&quot;&gt;虚基类 X 的对象&lt;/font&gt;" style="text;html=1;align=center;verticalAlign=middle;resizable=0;points=[];autosize=1;strokeColor=none;fillColor=none;" vertex="1" parent="MyYjl77unRjxFLSENZc_-5">
          <mxGeometry width="120" height="30" as="geometry" />
        </mxCell>
        <mxCell id="MyYjl77unRjxFLSENZc_-8" value="" style="group" vertex="1" connectable="0" parent="1">
          <mxGeometry x="150" y="430" width="210" height="90" as="geometry" />
        </mxCell>
        <mxCell id="MyYjl77unRjxFLSENZc_-2" value="指向虚基类实例的指针（8字节）" style="rounded=0;whiteSpace=wrap;html=1;" vertex="1" parent="MyYjl77unRjxFLSENZc_-8">
          <mxGeometry y="30" width="210" height="60" as="geometry" />
        </mxCell>
        <mxCell id="MyYjl77unRjxFLSENZc_-7" value="&lt;font style=&quot;font-size: 14px;&quot;&gt;继承类 Z&lt;/font&gt;" style="text;html=1;align=center;verticalAlign=middle;resizable=0;points=[];autosize=1;strokeColor=none;fillColor=none;" vertex="1" parent="MyYjl77unRjxFLSENZc_-8">
          <mxGeometry x="20" width="80" height="30" as="geometry" />
        </mxCell>
        <mxCell id="MyYjl77unRjxFLSENZc_-16" value="" style="shape=waypoint;sketch=0;fillStyle=solid;size=6;pointerEvents=1;points=[];fillColor=none;resizable=0;rotatable=0;perimeter=centerPerimeter;snapToPoint=1;" vertex="1" parent="MyYjl77unRjxFLSENZc_-8">
          <mxGeometry x="180" y="50" width="20" height="20" as="geometry" />
        </mxCell>
        <mxCell id="MyYjl77unRjxFLSENZc_-9" value="" style="group" vertex="1" connectable="0" parent="1">
          <mxGeometry x="150" y="300" width="210" height="90" as="geometry" />
        </mxCell>
        <mxCell id="MyYjl77unRjxFLSENZc_-1" value="指向虚基类实例的指针（8字节）" style="rounded=0;whiteSpace=wrap;html=1;" vertex="1" parent="MyYjl77unRjxFLSENZc_-9">
          <mxGeometry y="30" width="210" height="60" as="geometry" />
        </mxCell>
        <mxCell id="MyYjl77unRjxFLSENZc_-6" value="&lt;font style=&quot;font-size: 14px;&quot;&gt;继承类 Y&lt;/font&gt;" style="text;html=1;align=center;verticalAlign=middle;resizable=0;points=[];autosize=1;strokeColor=none;fillColor=none;" vertex="1" parent="MyYjl77unRjxFLSENZc_-9">
          <mxGeometry x="20" width="80" height="30" as="geometry" />
        </mxCell>
        <mxCell id="MyYjl77unRjxFLSENZc_-15" value="" style="shape=waypoint;sketch=0;fillStyle=solid;size=6;pointerEvents=1;points=[];fillColor=none;resizable=0;rotatable=0;perimeter=centerPerimeter;snapToPoint=1;" vertex="1" parent="MyYjl77unRjxFLSENZc_-9">
          <mxGeometry x="180" y="50" width="20" height="20" as="geometry" />
        </mxCell>
        <mxCell id="MyYjl77unRjxFLSENZc_-19" value="" style="edgeStyle=elbowEdgeStyle;elbow=horizontal;endArrow=classic;html=1;curved=0;rounded=0;endSize=8;startSize=8;entryX=-0.033;entryY=1.133;entryDx=0;entryDy=0;entryPerimeter=0;" edge="1" parent="1">
          <mxGeometry width="50" height="50" relative="1" as="geometry">
            <mxPoint x="343" y="490" as="sourcePoint" />
            <mxPoint x="549.04" y="433.99" as="targetPoint" />
            <Array as="points">
              <mxPoint x="420" y="460" />
            </Array>
          </mxGeometry>
        </mxCell>
        <mxCell id="MyYjl77unRjxFLSENZc_-22" value="" style="edgeStyle=elbowEdgeStyle;endArrow=classic;html=1;rounded=0;endSize=8;startSize=8;entryX=-0.042;entryY=0.933;entryDx=0;entryDy=0;entryPerimeter=0;" edge="1" parent="1" target="MyYjl77unRjxFLSENZc_-4">
          <mxGeometry width="50" height="50" relative="1" as="geometry">
            <mxPoint x="348" y="360" as="sourcePoint" />
            <mxPoint x="540" y="430" as="targetPoint" />
            <Array as="points">
              <mxPoint x="418" y="390" />
            </Array>
          </mxGeometry>
        </mxCell>
      </root>
    </mxGraphModel>
  </diagram>
</mxfile>
